<svg xmlns="http://www.w3.org/2000/svg" xmlns:xlink="http://www.w3.org/1999/xlink" width="38" height="39" viewBox="0 0 38 39">
    <defs>
        <path id="prefix__a" d="M28.412 25.17c2.011 0 3.642 1.632 3.642 3.647 0 2.014-1.63 3.647-3.642 3.647s-3.643-1.633-3.643-3.647c0-2.015 1.63-3.648 3.643-3.648zm-14.57 0c2.011 0 3.642 1.632 3.642 3.647 0 2.014-1.63 3.647-3.642 3.647s-3.643-1.633-3.643-3.647c0-2.015 1.63-3.648 3.643-3.648zM5.208 0c2.65 0 4.953 1.787 5.63 4.327l.07.286.572 2.681h18.758c.142 0 .283.01.423.031l.209.039c1.5.333 2.47 1.769 2.252 3.267l-.04.214-2.013 9.07c-.425 1.915-2.066 3.302-4 3.419l-.266.008H15.469c-1.972 0-3.687-1.32-4.21-3.2l-.064-.26L8.058 5.224c-.271-1.266-1.339-2.192-2.61-2.296l-.24-.01H0V0h5.208z"/>
    </defs>
    <g fill="none" fill-rule="evenodd" transform="translate(2.609 3.26)">
        <mask id="prefix__b" fill="#fff">
            <use xlink:href="#prefix__a"/>
        </mask>
        <use fill="#B8B8B8" xlink:href="#prefix__a"/>
        <path fill="#B8B8B8" fill-rule="nonzero" d="M-2.319 -2.319H34.782V34.782H-2.319z" mask="url(#prefix__b)"/>
    </g>
</svg>
