<svg xmlns="http://www.w3.org/2000/svg" xmlns:xlink="http://www.w3.org/1999/xlink" width="38" height="38" viewBox="0 0 38 38">
    <defs>
        <linearGradient id="prefix__b" x1="0%" x2="100%" y1="50%" y2="41.846%">
            <stop offset="0%" stop-color="#00C57C"/>
            <stop offset="100%" stop-color="#00B9A0"/>
        </linearGradient>
        <path id="prefix__a" d="M17.276.257l.14.113L32.935 14.6l-1.898 2.105-1.874-1.719.001 12.05c0 2.273-1.762 4.131-3.983 4.261l-.249.007H8.002c-2.253 0-4.096-1.777-4.224-4.018l-.007-.25-.001-12.05-1.872 1.72L0 14.598 15.518.37c.494-.452 1.225-.49 1.758-.113zm.602 15.395h-2.821v5.692h2.821v-5.692z"/>
    </defs>
    <g fill="none" fill-rule="evenodd" transform="translate(2.859 2.631)">
        <mask id="prefix__c" fill="#fff">
            <use xlink:href="#prefix__a"/>
        </mask>
        <use fill="#B8B8B8" xlink:href="#prefix__a"/>
        <path fill="url(#prefix__b)" fill-rule="nonzero" d="M-2.319 -2.319H34.782V34.782H-2.319z" mask="url(#prefix__c)"/>
    </g>
</svg>
