<svg xmlns="http://www.w3.org/2000/svg" xmlns:xlink="http://www.w3.org/1999/xlink" width="38" height="39" viewBox="0 0 38 39">
    <defs>
        <path id="prefix__a" d="M26.034 0c2.27 0 4.11 1.84 4.11 4.11v21.924c0 2.27-1.84 4.11-4.11 4.11H4.111c-2.27 0-4.111-1.84-4.111-4.11V4.111C0 1.84 1.84 0 4.11 0zm-1.37 20.553H10.962v2.74h13.702v-2.74zm-16.443 0h-2.74v2.74h2.74v-2.74zm16.443-6.85H10.962v2.74h13.702v-2.74zm-16.443 0h-2.74v2.74h2.74v-2.74zM26.034 2.74H4.111c-.757 0-1.37.614-1.37 1.37v2.741h24.663v-2.74c0-.757-.613-1.37-1.37-1.37z"/>
    </defs>
    <g fill="none" fill-rule="evenodd" transform="translate(4.174 4.42)">
        <mask id="prefix__b" fill="#fff">
            <use xlink:href="#prefix__a"/>
        </mask>
        <use fill="#B8B8B8" xlink:href="#prefix__a"/>
        <path fill="#B8B8B8" fill-rule="nonzero" d="M-3.478 -3.478H33.623V33.623H-3.478z" mask="url(#prefix__b)"/>
    </g>
</svg>
