<svg xmlns="http://www.w3.org/2000/svg" width="29" height="29" viewBox="0 0 29 29">
    <g fill="none" fill-rule="evenodd">
        <path fill="#FFF" d="M0 0H480V1796H0z" transform="translate(-428 -68)"/>
        <path fill="#212B36" d="M441.299 69.565c5.52 0 9.994 4.475 9.994 9.995 0 2.335-.801 4.484-2.144 6.186l6.503 6.504-1.663 1.663-6.504-6.503c-1.702 1.343-3.85 2.144-6.186 2.144-5.52 0-9.995-4.475-9.995-9.994 0-5.52 4.475-9.995 9.995-9.995zm0 2.352c-4.221 0-7.643 3.422-7.643 7.643 0 4.22 3.422 7.643 7.643 7.643 4.22 0 7.643-3.422 7.643-7.643s-3.422-7.643-7.643-7.643z" transform="translate(-428 -68)"/>
    </g>
</svg>
