<svg xmlns="http://www.w3.org/2000/svg" xmlns:xlink="http://www.w3.org/1999/xlink" width="39" height="39" viewBox="0 0 39 39">
    <defs>
        <path id="prefix__a" d="M13.806 16.443c8.593 0 13.79 3.156 13.79 8.221 0 .837-.019 1.325-.105 1.932-.299 2.092-1.324 3.549-3.387 3.549H3.509c-2.07 0-3.102-1.457-3.403-3.548C.02 25.99 0 25.502 0 24.664c0-5.066 5.2-8.221 13.806-8.221zM13.798 0c3.779 0 6.9 2.974 6.9 6.776 0 3.848-3.119 6.926-6.9 6.926-3.767 0-6.899-3.078-6.899-6.901 0-3.787 3.132-6.801 6.9-6.801z"/>
    </defs>
    <g fill="none" fill-rule="evenodd" transform="translate(5.595 4.42)">
        <mask id="prefix__b" fill="#fff">
            <use xlink:href="#prefix__a"/>
        </mask>
        <use fill="#B8B8B8" xlink:href="#prefix__a"/>
        <path fill="#B8B8B8" fill-rule="nonzero" d="M-4.638 -3.478H32.463V33.623H-4.638z" mask="url(#prefix__b)"/>
    </g>
</svg>
